<?xml version="1.0" standalone="no"?>
<!DOCTYPE svg PUBLIC "-//W3C//DTD SVG 20010904//EN"
 "http://www.w3.org/TR/2001/REC-SVG-20010904/DTD/svg10.dtd">
<svg version="1.0" xmlns="http://www.w3.org/2000/svg"
 width="700.000000pt" height="700.000000pt" viewBox="0 0 700.000000 700.000000"
 preserveAspectRatio="xMidYMid meet">
<metadata>
Created by potrace 1.11, written by Peter Selinger 2001-2013
</metadata>
<g transform="translate(0.000000,700.000000) scale(0.100000,-0.100000)"
fill="#000000" stroke="none">
<path d="M0 3500 l0 -3500 3500 0 3500 0 0 3500 0 3500 -3500 0 -3500 0 0
-3500z m2140 1443 c0 -5 -41 -196 -90 -425 -50 -230 -90 -424 -90 -433 0 -13
45 -15 392 -13 l392 3 82 380 c45 209 87 406 93 438 l12 57 116 0 115 0 -6
-24 c-3 -13 -44 -203 -91 -422 -48 -220 -88 -407 -91 -416 -5 -17 10 -18 225
-18 l231 0 0 -110 0 -110 -252 -2 -253 -3 -66 -310 c-36 -171 -69 -325 -72
-343 l-7 -32 280 0 280 0 0 -115 0 -115 -304 0 -304 0 -6 -27 c-4 -16 -46
-211 -95 -436 -48 -224 -90 -410 -93 -412 -3 -3 -54 -4 -115 -3 l-109 3 87
412 c48 227 90 424 93 438 l6 25 -395 0 -395 0 -5 -22 c-8 -34 -175 -849 -175
-854 0 -2 -52 -4 -115 -4 -115 0 -115 0 -110 23 8 33 175 848 175 853 0 2 -97
4 -215 4 l-215 0 0 115 0 115 242 2 242 3 71 338 c39 185 69 340 66 342 -2 3
-118 5 -258 5 l-253 0 0 110 0 110 282 2 282 3 96 438 95 437 112 0 c62 0 113
-3 113 -7z m2710 -763 c553 -232 1026 -431 1053 -442 l47 -21 -2 -220 -3 -220
-1055 -443 c-580 -244 -1058 -443 -1062 -443 -5 -1 -8 70 -8 157 l0 159 920
393 c506 216 920 396 920 399 0 4 -413 183 -917 398 l-918 391 -3 162 c-2 128
0 161 10 157 7 -2 465 -195 1018 -427z"/>
<path d="M1913 3833 c-4 -10 -39 -164 -78 -343 l-71 -325 389 -3 c215 -1 392
0 394 2 5 5 143 654 143 672 0 12 -68 14 -385 14 -358 0 -386 -1 -392 -17z"/>
</g>
</svg>
